<svg version="1.2" xmlns="http://www.w3.org/2000/svg" viewBox="0 0 188 187" width="188" height="187"><defs><clipPath clipPathUnits="userSpaceOnUse" id="cp1"><path d="m-454-5449h1920v8118h-1920z"/></clipPath></defs><style>.a{fill:#1e0b4b}.b{fill:#2f5bea}</style><g clip-path="url(#cp1)"><path fill-rule="evenodd" class="a" d="m187.1 108.5c0 10-8 18.1-18 18.1v6h-6v-6c-9.9 0-18-8.1-18-18.1v-3h6v3c0 6.7 5.4 12 12 12h6c6.6 0 12-5.3 12-12 0-6.6-5.4-12-12-12h-6c-8.9 0-16.3-6.5-17.7-15h-18.3v18c0 5-4.1 9-9.1 9h-3v45.8l-14 28c-1.3 2.7-4 4.3-7 4.3-3 0-5.7-1.6-7-4.3l-14-28v-3.7h-42.5c-1.4 5.2-6 9-11.6 9v6h-6v-6c-6.7 0-12-5.4-12-12v-3h6v3c0 3.3 2.7 6 6 6h6c3.3 0 6-2.7 6-6 0-3.3-2.7-6-6-6h-6c-6.7 0-12-5.4-12-12 0-6.7 5.3-12.1 12-12.1v-6h6v6c6.6 0 12 5.4 12 12.1h-6c0-3.4-2.7-6.1-6-6.1h-6c-3.3 0-6 2.7-6 6.1 0 3.3 2.7 6 6 6h6c5.6 0 10.2 3.8 11.6 9h42.5v-36.1h-3c-5 0-9.1-4-9.1-9v-39.1h-30.4c-1.4 5.2-6 9.1-11.6 9.1v6h-6v-6c-6.7 0-12-5.4-12-12.1v-3h6v3c0 3.4 2.7 6.1 6 6.1h6c3.3 0 6-2.7 6-6.1 0-3.3-2.7-6-6-6h-6c-6.7 0-12-5.4-12-12 0-6.6 5.3-12 12-12v-6h6v6c6.6 0 12 5.4 12 12h-6c0-3.3-2.7-6-6-6h-6c-3.3 0-6 2.7-6 6 0 3.3 2.7 6 6 6h6c5.6 0 10.2 3.9 11.6 9h30.4v-3c0-3.9 2.6-7.2 6.1-8.4v-15.6c0-14.9 12.1-27 27-27 14.9 0 27 12.1 27 27v15.6c3.5 1.2 6.1 4.5 6.1 8.4v24.1h18.3c1.4-8.5 8.8-15.1 17.7-15.1v-6h6v6c10 0 18 8.1 18 18.1h-6c0-6.7-5.4-12-12-12h-6c-6.6 0-12 5.3-12 12 0 6.6 5.4 12 12 12h6c10 0 18 8.1 18 18zm-114.1-81.1v15h6v-15c0-8.3 6.7-15 15-15 8.3 0 15 6.7 15 15v15h6v-15c0-11.6-9.4-21-21-21-11.6 0-21 9.4-21 21zm30 0c0-5-4-9-9-9-5 0-9 4-9 9v15h18zm-24 81.1v42.1h12v-42.1zm28.2 48.1h-26.3l11.5 23c0.6 1.3 2.6 1.3 3.3 0zm1.8-48h-12v42h12zm12.1-57.1c0-1.6-1.4-3-3-3h-48.1c-1.7 0-3 1.4-3 3v48.1c0 1.7 1.3 3 3 3h48.1c1.6 0 3-1.3 3-3z"/><path fill-rule="evenodd" class="b" d="m109 69.5c0 4.7-2.2 9.1-6 11.9v15.1h-18v-15.1c-3.8-2.8-6-7.2-6-11.9 0-8.3 6.7-15.1 15-15.1 8.3 0 15 6.8 15 15.1zm-6 0c0-5-4-9.1-9-9.1-5 0-9 4.1-9 9.1 0 3.2 1.7 6.1 4.5 7.7l1.5 0.9v12.4h6v-12.4l1.5-0.9c2.8-1.6 4.5-4.5 4.5-7.7z"/></g></svg>