<svg version="1.2" xmlns="http://www.w3.org/2000/svg" viewBox="0 0 187 188" width="187" height="188"><defs><clipPath clipPathUnits="userSpaceOnUse" id="cp1"><path d="m-1276-5867h1920v8118h-1920z"/></clipPath></defs><style>.a{fill:#1e0b4b}</style><g clip-path="url(#cp1)"><path fill-rule="evenodd" class="a" d="m186.3 106c0 29.8-24.3 54.1-54.1 54.1-29.8 0-54.1-24.3-54.1-54.1 0-2.8 0.3-5.5 0.7-8.1l-1.4-0.9c-2.7 1.4-5.5 2.5-8.4 3.5q0.1 1.2 0.1 2.5c0 8.4-4.3 15.7-10.8 20 18.4 5.7 31.8 22.9 31.8 43.1v9c0 6.7-5.3 12-12 12h-25.5c-3 0-5.6-1.2-7.5-3.1-1.9 1.9-4.6 3.1-7.5 3.1h-25.6c-6.6 0-12-5.3-12-12v-9c0-20.2 13.4-37.4 31.8-43.1-6.5-4.3-10.8-11.6-10.8-20q0-2.2 0.4-4.2l-13.6-13.7 4.3-6.9q-2.7-4.8-4.2-10l-7.9-1.9v-22.8l7.9-1.8q1.5-5.3 4.2-10l-4.3-6.9 16.1-16.2 6.9 4.3q4.8-2.6 10-4.1l1.9-7.9h22.8l1.8 7.9q5.3 1.5 10.1 4.1l6.9-4.3 16.1 16.2-4.3 6.9q2.7 4.7 4.2 10l7.9 1.8v14.1c7.2-3.6 15.4-5.7 24-5.7 29.8 0 54.1 24.3 54.1 54.1zm-18 3v-6h11.8c-0.7-11-5-21-11.9-28.7l-8.4 8.3-4.2-4.2 8.4-8.4c-7.8-6.8-17.8-11.2-28.8-11.9v11.9h-6v-11.9c-11 0.7-21 5.1-28.7 11.9l8.3 8.4-4.2 4.2-8.4-8.3c-6.9 7.7-11.2 17.7-11.9 28.7h11.9v6h-11.9c0.7 11 5 21 11.9 28.8l8.4-8.4 4.2 4.2-8.3 8.4c7.7 6.9 17.7 11.3 28.7 11.9v-11.8h6v11.8c11-0.6 21-5 28.8-11.9l-8.4-8.4 4.2-4.2 8.4 8.4c6.9-7.8 11.2-17.8 11.9-28.8zm-123.2 18.1c-3.6 0-7.1 0.5-10.5 1.4l10.5 12 10.5-12c-3.3-0.9-6.8-1.4-10.5-1.4zm16.6 3.7l-16.6 18.8-16.5-18.8c-13.3 6.2-22.5 19.7-22.5 35.3v9c0 3.3 2.7 6 6 6h25.5c2.5 0 4.5-2 4.5-4.5 0-2.5-2-4.5-4.5-4.5h-22.5v-6h6v-12h6v12h10.5c3 0 5.6 1.2 7.5 3.2 1.9-2 4.6-3.2 7.5-3.2h10.6v-12h6v12h6v6h-22.6c-2.4 0-4.5 2-4.5 4.5 0 2.5 2.1 4.5 4.5 4.5h25.6c3.3 0 6-2.7 6-6v-9c0-15.6-9.3-29.1-22.5-35.3zm1.5-27.8c0-9.9-8.1-18-18.1-18-9.9 0-18 8.1-18 18 0 10 8.1 18 18 18 10 0 18.1-8 18.1-18zm17-11.4c3.5-12.6 11.4-23.4 22-30.5v-12.8l-6.8-1.6-0.4-1.8c-1.1-4.1-2.7-8.1-4.9-11.7l-1-1.6 3.7-6-9.4-9.3-5.9 3.6-1.6-0.9c-3.6-2.2-7.6-3.9-11.7-4.9l-1.8-0.4-1.6-6.8h-13.3l-1.6 6.8-1.8 0.4c-4.1 1-8.1 2.7-11.7 4.9l-1.6 0.9-6-3.6-9.3 9.3 3.7 6-1 1.6c-2.2 3.6-3.8 7.6-4.9 11.7l-0.4 1.8-6.8 1.6v13.3l6.8 1.6 0.4 1.8c1.1 4.1 2.7 8 4.9 11.7l1 1.6-3.7 5.9 8.1 8.2c1.9-3.8 4.7-7 8.1-9.3-8.5-6.8-13.6-17.2-13.6-28.2 0-19.8 16.2-36 36.1-36 19.8 0 36 16.2 36 36 0 16.1-10.4 29.8-25.3 34.4q1.7 2.5 2.8 5.4 4.3-1.5 8.2-3.8l1.6-1zm-42.3-11.5c2.3-0.7 4.7-1.1 7.2-1.1 5.7 0 11 2 15.1 5.3 14-2.8 24-14.9 24-29.3 0-16.6-13.5-30.1-30.1-30.1-16.5 0-30 13.5-30 30.1 0 10.1 5.3 19.6 13.8 25.1z"/></g></svg>