<svg version="1.2" xmlns="http://www.w3.org/2000/svg" viewBox="0 0 187 187" width="187" height="187"><defs><clipPath clipPathUnits="userSpaceOnUse" id="cp1"><path d="m-1244-5078h1920v8118h-1920z"/></clipPath></defs><style>.a{fill:#1e0b4b}.b{fill:#2f5bea}</style><g clip-path="url(#cp1)"><path fill-rule="evenodd" class="a" d="m187 142.4c0 24.6-20 44.6-44.6 44.6-23.3 0-42.5-18.1-44.4-40.9h-8.3c-1.9 22.8-21.1 40.9-44.4 40.9-24.6 0-44.6-20-44.6-44.6 0-23.3 18.1-42.5 40.9-44.4v-8.3c-22.8-1.9-40.9-21.1-40.9-44.4 0-24.6 20-44.6 44.6-44.6 24.6 0 44.6 20 44.6 44.6 0 23.3-18.1 42.5-41 44.4v8.3c9.6 0.8 18.3 4.6 25.2 10.5l34.3-34.4c-2.9-3.4-5.3-7.3-7-11.5-2.4-5.5-3.5-11.3-3.5-17.3 0-6 1.1-11.9 3.5-17.4 2.2-5.3 5.4-10 9.5-14.1 4.1-4.1 8.9-7.3 14.2-9.6 5.5-2.3 11.3-3.5 17.3-3.5 6.3 0 12.3 1.3 18 3.8 1.8 0.8 2.7 2.9 1.8 4.8-0.5 1.3-1.8 2.1-3.3 2.1q-0.7 0-1.5-0.3c-4.7-2.1-9.7-3.1-15-3.1-9.9 0-19.3 3.9-26.3 10.9-7.1 7.1-11 16.4-11 26.4 0 7.8 2.5 15.3 6.9 21.6 4.1-7.1 10.3-12.5 17.5-15.5-4.3-3.6-7.1-9.1-7.1-15.2 0-11.1 9-20 20-20 11.1 0 20 8.9 20 20 0 6.1-2.7 11.6-7.1 15.2 7.3 3 13.4 8.4 17.5 15.5 4.5-6.3 6.9-13.8 6.9-21.6 0-4.5-0.8-8.9-2.3-13-0.4-1-0.3-1.9 0.1-2.8 0.4-0.9 1.1-1.6 2-1.9q0.6-0.3 1.3-0.3c1.5 0 2.9 1 3.4 2.4 1.9 5 2.8 10.2 2.8 15.6 0 6-1.2 11.8-3.5 17.3-2.2 5.3-5.5 10.1-9.6 14.2-4 4.1-8.8 7.3-14.1 9.5-5.5 2.4-11.4 3.6-17.4 3.6-6 0-11.8-1.2-17.3-3.6-4.2-1.7-8.1-4.1-11.5-7l-34.4 34.3c5.9 6.9 9.7 15.6 10.5 25.2h8.3c1.9-22.9 21.1-40.9 44.4-40.9 24.6 0 44.6 20 44.6 44.5zm-44.7-93.5q0.1 0 0.1 0 0.1 0 0.1 0c7 0 12.7-5.7 12.7-12.7 0-7-5.8-12.8-12.8-12.8-7 0-12.7 5.8-12.7 12.8 0 7 5.7 12.7 12.6 12.7zm-25.1 23.9c6.9 6.3 15.8 9.8 25.2 9.8 9.5 0 18.3-3.5 25.2-9.8-4.7-10.2-14.3-16.6-25.1-16.6q0 0-0.1 0 0 0-0.1 0c-10.7 0-20.3 6.4-25.1 16.6zm-109.2-27.5c0 8 2.6 15.5 6.9 21.6 4.1-7.1 10.2-12.5 17.5-15.5-4.4-3.6-7.1-9.1-7.1-15.2 0-11.1 8.9-20 20-20 11 0 20 8.9 20 20 0 6.1-2.8 11.6-7.1 15.2 7.2 3 13.4 8.4 17.4 15.5 4.4-6.1 7-13.6 7-21.6 0-20.6-16.8-37.3-37.3-37.3-20.6 0-37.3 16.7-37.3 37.3zm37.2 10.9c-10.7 0-20.4 6.4-25.1 16.5 6.6 6.1 15.5 9.9 25.2 9.9 9.7 0 18.5-3.8 25.2-9.9-4.8-10.1-14.4-16.5-25.1-16.5q-0.1 0-0.1 0-0.1 0-0.1 0zm0-7.3q0 0 0.1 0 0 0 0.1 0c6.9 0 12.6-5.7 12.6-12.7 0-7-5.7-12.8-12.7-12.8-7 0-12.8 5.8-12.8 12.8 0 7 5.7 12.7 12.7 12.7zm37.4 93.5c0-20.6-16.7-37.3-37.3-37.3-20.6 0-37.3 16.7-37.3 37.3 0 20.7 16.7 37.3 37.3 37.3 20.6 0 37.3-16.6 37.3-37.3zm59.8 37.3c9.7 0 18.6-3.7 25.2-9.8-4.7-10.1-14.4-16.6-25.2-16.6-10.8 0-20.4 6.5-25.2 16.6 6.7 6.1 15.5 9.8 25.2 9.8zm37.3-37.3c0-20.5-16.7-37.3-37.3-37.3-20.5 0-37.3 16.8-37.3 37.3 0 8.1 2.6 15.5 7 21.7 4-7.2 10.2-12.6 17.4-15.5-4.3-3.7-7.1-9.2-7.1-15.3 0-11 9-20 20-20 11.1 0 20 9 20 20 0 6.1-2.7 11.6-7.1 15.3 7.3 2.9 13.4 8.3 17.5 15.5 4.4-6.1 6.9-13.6 6.9-21.7zm-24.5-9.1c0-7-5.7-12.7-12.8-12.7-7 0-12.7 5.7-12.7 12.7 0 7.1 5.7 12.8 12.7 12.8 7.1 0 12.8-5.7 12.8-12.8z"/><path class="b" d="m65.6 128.1l-21.8 32.7c-0.7 1-1.8 1.6-2.9 1.6q-0.1 0-0.2 0c-1.1 0-2.2-0.5-2.8-1.4l-12.8-16.3c-1.2-1.6-0.9-3.9 0.7-5.1 1.5-1.3 3.8-1 5.1 0.6l9.6 12.4 19-28.6c1.1-1.6 3.4-2.1 5.1-1 1.7 1.1 2.1 3.4 1 5.1z"/><circle class="a" cx="172.2" cy="17.2" r="3.6"/></g></svg>